# xmcd
# 
# Track frame offsets:
#     150
#     14980
#     29885
#     42672
#     56025
#     76165
#     87890
#     105140
#     119975
#     139322
#     154520
#     165617
#     179685
#     191245
#     205957
# 
# Disc length: 4441
# 
# Revision: 78
# Processed by: cddbd v1.5.2PL0 Copyright (c) Steve Scherf et al.
# Submitted via: fre:ac v1.1rc1
# 
DISCID=e011570f
DTITLE=Robbie Williams - Swing When You're Winning
DYEAR=2001
DGENRE=Swing
TTITLE0=I Will Talk And Hollywood Will Listen
TTITLE1=Mack, The Knife
TTITLE2=Somethin' Stupid (with Nicole kidman)
TTITLE3=Do Nothin' Till You Hear From Me
TTITLE4=It Was A Very Good Year (with Frank Sinatra)
TTITLE5=Straighten Up And Fly Right
TTITLE6=Well, Did You, Evah! (with Jon Lovitz)
TTITLE7=Mr. Bojangles
TTITLE8=One For My Baby
TTITLE9=Things (with  Jane Horrocks)
TTITLE10=Ain't That A Kick In The Head?
TTITLE11=They Can't Take That Away From Me (with Rupert Everett)
TTITLE12=Have You Met Miss Jones?
TTITLE13=Me And My Shadow (with  Jonathan Wilkes)
TTITLE14=Beyond The Sea
EXTD=
EXTT0=
EXTT1=
EXTT2=
EXTT3=
EXTT4=
EXTT5=
EXTT6=
EXTT7=
EXTT8=
EXTT9=
EXTT10=
EXTT11=
EXTT12=
EXTT13=
EXTT14=
PLAYORDER=
